<mxfile host="app.diagrams.net" modified="2024-02-08T12:01:33.054Z" agent="Mozilla/5.0 (Windows NT 10.0; Win64; x64) AppleWebKit/537.36 (KHTML, like Gecko) Chrome/121.0.0.0 Safari/537.36" etag="mx46rHIIFkenPLpuErJH" version="23.1.1" type="github">
  <diagram name="PÃ¡gina-1" id="qXKaRHbrHUWE4euD8bxP">
    <mxGraphModel dx="1434" dy="738" grid="1" gridSize="10" guides="1" tooltips="1" connect="1" arrows="1" fold="1" page="1" pageScale="1" pageWidth="827" pageHeight="1169" math="0" shadow="0">
      <root>
        <mxCell id="0" />
        <mxCell id="1" parent="0" />
        <mxCell id="Zvblqhm12Ru0k46V139t-1" value="" style="rounded=1;whiteSpace=wrap;html=1;fillColor=#b0e3e6;strokeColor=#0e8088;" vertex="1" parent="1">
          <mxGeometry x="1380" y="50" width="210" height="550" as="geometry" />
        </mxCell>
        <mxCell id="Zvblqhm12Ru0k46V139t-2" value="TMS (SCADA)" style="rounded=1;whiteSpace=wrap;html=1;fillColor=#fad7ac;strokeColor=#b46504;verticalAlign=top;" vertex="1" parent="1">
          <mxGeometry x="580" y="50" width="790" height="540" as="geometry" />
        </mxCell>
        <mxCell id="Zvblqhm12Ru0k46V139t-3" value="TMS (SCADA)" style="rounded=1;whiteSpace=wrap;html=1;fillColor=#b1ddf0;strokeColor=#10739e;horizontal=1;verticalAlign=top;" vertex="1" parent="1">
          <mxGeometry x="140" y="60" width="410" height="580" as="geometry" />
        </mxCell>
        <mxCell id="Zvblqhm12Ru0k46V139t-4" style="edgeStyle=orthogonalEdgeStyle;rounded=0;orthogonalLoop=1;jettySize=auto;html=1;curved=0;strokeWidth=3;" edge="1" parent="1" target="Zvblqhm12Ru0k46V139t-9">
          <mxGeometry relative="1" as="geometry">
            <mxPoint x="80.07142857142844" y="230" as="sourcePoint" />
            <mxPoint x="294" y="280" as="targetPoint" />
            <Array as="points">
              <mxPoint x="80" y="231" />
            </Array>
          </mxGeometry>
        </mxCell>
        <mxCell id="Zvblqhm12Ru0k46V139t-5" value="heart beat&amp;nbsp; &amp;nbsp;&amp;lt;DESDE SCADA&amp;gt;" style="edgeLabel;html=1;align=center;verticalAlign=middle;resizable=0;points=[];" vertex="1" connectable="0" parent="Zvblqhm12Ru0k46V139t-4">
          <mxGeometry x="-0.1206" y="-2" relative="1" as="geometry">
            <mxPoint x="111" y="-13" as="offset" />
          </mxGeometry>
        </mxCell>
        <mxCell id="Zvblqhm12Ru0k46V139t-6" style="edgeStyle=orthogonalEdgeStyle;rounded=0;orthogonalLoop=1;jettySize=auto;html=1;curved=0;" edge="1" parent="1">
          <mxGeometry relative="1" as="geometry">
            <mxPoint x="59.5" y="370" as="sourcePoint" />
            <mxPoint x="785" y="370" as="targetPoint" />
            <Array as="points">
              <mxPoint x="130" y="370" />
              <mxPoint x="130" y="371" />
              <mxPoint x="438" y="371" />
              <mxPoint x="438" y="370" />
            </Array>
          </mxGeometry>
        </mxCell>
        <mxCell id="Zvblqhm12Ru0k46V139t-7" value="MessageNotificationDataScadaCatenaryStatus" style="edgeLabel;html=1;align=center;verticalAlign=middle;resizable=0;points=[];" vertex="1" connectable="0" parent="Zvblqhm12Ru0k46V139t-6">
          <mxGeometry x="-0.1544" y="2" relative="1" as="geometry">
            <mxPoint x="105" y="-9" as="offset" />
          </mxGeometry>
        </mxCell>
        <mxCell id="Zvblqhm12Ru0k46V139t-8" value="scada nativo&lt;br&gt;dummy scada" style="shape=umlLifeline;perimeter=lifelinePerimeter;whiteSpace=wrap;html=1;container=1;dropTarget=0;collapsible=0;recursiveResize=0;outlineConnect=0;portConstraint=eastwest;newEdgeStyle={&quot;curved&quot;:0,&quot;rounded&quot;:0};fillColor=#e1d5e7;strokeColor=#9673a6;" vertex="1" parent="1">
          <mxGeometry x="10" y="120" width="100" height="300" as="geometry" />
        </mxCell>
        <mxCell id="Zvblqhm12Ru0k46V139t-9" value="ESB lib&lt;br&gt;HeartbeatNotificationListener" style="shape=umlLifeline;perimeter=lifelinePerimeter;whiteSpace=wrap;html=1;container=1;dropTarget=0;collapsible=0;recursiveResize=0;outlineConnect=0;portConstraint=eastwest;newEdgeStyle={&quot;curved&quot;:0,&quot;rounded&quot;:0};fillColor=#dae8fc;strokeColor=#6c8ebf;" vertex="1" parent="1">
          <mxGeometry x="416" y="130" width="100" height="310" as="geometry" />
        </mxCell>
        <mxCell id="Zvblqhm12Ru0k46V139t-10" value="" style="html=1;points=[[0,0,0,0,5],[0,1,0,0,-5],[1,0,0,0,5],[1,1,0,0,-5]];perimeter=orthogonalPerimeter;outlineConnect=0;targetShapes=umlLifeline;portConstraint=eastwest;newEdgeStyle={&quot;curved&quot;:0,&quot;rounded&quot;:0};" vertex="1" parent="Zvblqhm12Ru0k46V139t-9">
          <mxGeometry x="45" y="90" width="10" height="40" as="geometry" />
        </mxCell>
        <mxCell id="Zvblqhm12Ru0k46V139t-11" value="int scada&lt;br&gt;CatenaryNotificationListener" style="shape=umlLifeline;perimeter=lifelinePerimeter;whiteSpace=wrap;html=1;container=1;dropTarget=0;collapsible=0;recursiveResize=0;outlineConnect=0;portConstraint=eastwest;newEdgeStyle={&quot;curved&quot;:0,&quot;rounded&quot;:0};fillColor=#fff2cc;strokeColor=#d6b656;" vertex="1" parent="1">
          <mxGeometry x="740" y="150" width="100" height="300" as="geometry" />
        </mxCell>
        <mxCell id="Zvblqhm12Ru0k46V139t-12" value="" style="html=1;points=[[0,0,0,0,5],[0,1,0,0,-5],[1,0,0,0,5],[1,1,0,0,-5]];perimeter=orthogonalPerimeter;outlineConnect=0;targetShapes=umlLifeline;portConstraint=eastwest;newEdgeStyle={&quot;curved&quot;:0,&quot;rounded&quot;:0};" vertex="1" parent="Zvblqhm12Ru0k46V139t-11">
          <mxGeometry x="45" y="180" width="10" height="80" as="geometry" />
        </mxCell>
        <mxCell id="Zvblqhm12Ru0k46V139t-13" value="enqueueCatenaryStatusMessage" style="edgeStyle=orthogonalEdgeStyle;rounded=0;orthogonalLoop=1;jettySize=auto;html=1;curved=0;elbow=vertical;" edge="1" parent="Zvblqhm12Ru0k46V139t-11" source="Zvblqhm12Ru0k46V139t-12" target="Zvblqhm12Ru0k46V139t-12">
          <mxGeometry x="-0.3333" y="36" relative="1" as="geometry">
            <Array as="points">
              <mxPoint x="75" y="210" />
            </Array>
            <mxPoint x="-1" y="-10" as="offset" />
          </mxGeometry>
        </mxCell>
        <mxCell id="Zvblqhm12Ru0k46V139t-14" style="edgeStyle=orthogonalEdgeStyle;rounded=0;orthogonalLoop=1;jettySize=auto;html=1;curved=0;" edge="1" parent="1" source="Zvblqhm12Ru0k46V139t-16" target="Zvblqhm12Ru0k46V139t-22">
          <mxGeometry relative="1" as="geometry">
            <mxPoint x="1300" y="320" as="targetPoint" />
            <Array as="points">
              <mxPoint x="1380" y="280" />
              <mxPoint x="1380" y="280" />
            </Array>
          </mxGeometry>
        </mxCell>
        <mxCell id="Zvblqhm12Ru0k46V139t-15" value="MessageNotificationTimelineIsolationTMM" style="edgeLabel;html=1;align=center;verticalAlign=middle;resizable=0;points=[];" vertex="1" connectable="0" parent="Zvblqhm12Ru0k46V139t-14">
          <mxGeometry x="-0.2716" y="-2" relative="1" as="geometry">
            <mxPoint x="42" y="-8" as="offset" />
          </mxGeometry>
        </mxCell>
        <mxCell id="Zvblqhm12Ru0k46V139t-16" value="TMS" style="shape=umlLifeline;perimeter=lifelinePerimeter;whiteSpace=wrap;html=1;container=1;dropTarget=0;collapsible=0;recursiveResize=0;outlineConnect=0;portConstraint=eastwest;newEdgeStyle={&quot;curved&quot;:0,&quot;rounded&quot;:0};fillColor=#cdeb8b;strokeColor=#36393d;" vertex="1" parent="1">
          <mxGeometry x="1440" y="135" width="100" height="300" as="geometry" />
        </mxCell>
        <mxCell id="Zvblqhm12Ru0k46V139t-17" style="edgeStyle=orthogonalEdgeStyle;rounded=0;orthogonalLoop=1;jettySize=auto;html=1;curved=0;strokeWidth=3;" edge="1" parent="1" source="Zvblqhm12Ru0k46V139t-20" target="Zvblqhm12Ru0k46V139t-8">
          <mxGeometry relative="1" as="geometry">
            <mxPoint x="360" y="290.0000000000002" as="sourcePoint" />
            <mxPoint x="110.31034482758605" y="290.0000000000002" as="targetPoint" />
            <Array as="points">
              <mxPoint x="205" y="308" />
              <mxPoint x="205" y="310" />
            </Array>
          </mxGeometry>
        </mxCell>
        <mxCell id="Zvblqhm12Ru0k46V139t-18" value="heart beat&amp;nbsp; &amp;nbsp;&amp;lt;HACIA SCADA&amp;gt;" style="edgeLabel;html=1;align=center;verticalAlign=middle;resizable=0;points=[];" vertex="1" connectable="0" parent="Zvblqhm12Ru0k46V139t-17">
          <mxGeometry x="-0.1206" y="-2" relative="1" as="geometry">
            <mxPoint x="27" y="-8" as="offset" />
          </mxGeometry>
        </mxCell>
        <mxCell id="Zvblqhm12Ru0k46V139t-19" value="ESB lib&lt;br&gt;AbstractESBService" style="shape=umlLifeline;perimeter=lifelinePerimeter;whiteSpace=wrap;html=1;container=1;dropTarget=0;collapsible=0;recursiveResize=0;outlineConnect=0;portConstraint=eastwest;newEdgeStyle={&quot;curved&quot;:0,&quot;rounded&quot;:0};size=30;fillColor=#dae8fc;strokeColor=#6c8ebf;" vertex="1" parent="1">
          <mxGeometry x="230" y="130" width="100" height="310" as="geometry" />
        </mxCell>
        <mxCell id="Zvblqhm12Ru0k46V139t-20" value="" style="html=1;points=[[0,0,0,0,5],[0,1,0,0,-5],[1,0,0,0,5],[1,1,0,0,-5]];perimeter=orthogonalPerimeter;outlineConnect=0;targetShapes=umlLifeline;portConstraint=eastwest;newEdgeStyle={&quot;curved&quot;:0,&quot;rounded&quot;:0};" vertex="1" parent="Zvblqhm12Ru0k46V139t-19">
          <mxGeometry x="45" y="155" width="10" height="45" as="geometry" />
        </mxCell>
        <mxCell id="Zvblqhm12Ru0k46V139t-21" value="int scada&lt;br&gt;IsolationsNotificationListener" style="shape=umlLifeline;perimeter=lifelinePerimeter;whiteSpace=wrap;html=1;container=1;dropTarget=0;collapsible=0;recursiveResize=0;outlineConnect=0;portConstraint=eastwest;newEdgeStyle={&quot;curved&quot;:0,&quot;rounded&quot;:0};fillColor=#fff2cc;strokeColor=#d6b656;size=25;" vertex="1" parent="1">
          <mxGeometry x="1190" y="120" width="100" height="310" as="geometry" />
        </mxCell>
        <mxCell id="Zvblqhm12Ru0k46V139t-22" value="" style="html=1;points=[[0,0,0,0,5],[0,1,0,0,-5],[1,0,0,0,5],[1,1,0,0,-5]];perimeter=orthogonalPerimeter;outlineConnect=0;targetShapes=umlLifeline;portConstraint=eastwest;newEdgeStyle={&quot;curved&quot;:0,&quot;rounded&quot;:0};" vertex="1" parent="Zvblqhm12Ru0k46V139t-21">
          <mxGeometry x="45" y="120" width="10" height="80" as="geometry" />
        </mxCell>
        <mxCell id="Zvblqhm12Ru0k46V139t-23" value="int scada&lt;br&gt;ScadaMessageProcessorScheduler" style="shape=umlLifeline;perimeter=lifelinePerimeter;whiteSpace=wrap;html=1;container=1;dropTarget=0;collapsible=0;recursiveResize=0;outlineConnect=0;portConstraint=eastwest;newEdgeStyle={&quot;curved&quot;:0,&quot;rounded&quot;:0};fillColor=#fff2cc;strokeColor=#d6b656;" vertex="1" parent="1">
          <mxGeometry x="1026" y="150" width="100" height="300" as="geometry" />
        </mxCell>
        <mxCell id="Zvblqhm12Ru0k46V139t-24" value="" style="html=1;points=[[0,0,0,0,5],[0,1,0,0,-5],[1,0,0,0,5],[1,1,0,0,-5]];perimeter=orthogonalPerimeter;outlineConnect=0;targetShapes=umlLifeline;portConstraint=eastwest;newEdgeStyle={&quot;curved&quot;:0,&quot;rounded&quot;:0};" vertex="1" parent="Zvblqhm12Ru0k46V139t-23">
          <mxGeometry x="45" y="170" width="10" height="80" as="geometry" />
        </mxCell>
        <mxCell id="Zvblqhm12Ru0k46V139t-25" value="processQueuedMessages" style="edgeStyle=orthogonalEdgeStyle;rounded=0;orthogonalLoop=1;jettySize=auto;html=1;curved=0;elbow=vertical;" edge="1" parent="Zvblqhm12Ru0k46V139t-23" source="Zvblqhm12Ru0k46V139t-23">
          <mxGeometry x="-0.0789" y="4" relative="1" as="geometry">
            <mxPoint x="54" y="200" as="sourcePoint" />
            <mxPoint x="54" y="220" as="targetPoint" />
            <Array as="points">
              <mxPoint x="120" y="160" />
              <mxPoint x="120" y="240" />
              <mxPoint x="54" y="240" />
            </Array>
            <mxPoint y="1" as="offset" />
          </mxGeometry>
        </mxCell>
        <mxCell id="Zvblqhm12Ru0k46V139t-26" value="int scada&lt;br&gt;AbstractScadaService&lt;br&gt;&lt;br&gt;" style="shape=umlLifeline;perimeter=lifelinePerimeter;whiteSpace=wrap;html=1;container=1;dropTarget=0;collapsible=0;recursiveResize=0;outlineConnect=0;portConstraint=eastwest;newEdgeStyle={&quot;curved&quot;:0,&quot;rounded&quot;:0};fillColor=#fff2cc;strokeColor=#d6b656;" vertex="1" parent="1">
          <mxGeometry x="630" y="90" width="100" height="300" as="geometry" />
        </mxCell>
        <mxCell id="Zvblqhm12Ru0k46V139t-27" value="" style="html=1;points=[[0,0,0,0,5],[0,1,0,0,-5],[1,0,0,0,5],[1,1,0,0,-5]];perimeter=orthogonalPerimeter;outlineConnect=0;targetShapes=umlLifeline;portConstraint=eastwest;newEdgeStyle={&quot;curved&quot;:0,&quot;rounded&quot;:0};" vertex="1" parent="Zvblqhm12Ru0k46V139t-26">
          <mxGeometry x="45" y="110" width="10" height="80" as="geometry" />
        </mxCell>
        <mxCell id="Zvblqhm12Ru0k46V139t-28" style="edgeStyle=orthogonalEdgeStyle;rounded=0;orthogonalLoop=1;jettySize=auto;html=1;curved=0;" edge="1" parent="1" source="Zvblqhm12Ru0k46V139t-10" target="Zvblqhm12Ru0k46V139t-27">
          <mxGeometry relative="1" as="geometry">
            <Array as="points">
              <mxPoint x="490" y="230" />
              <mxPoint x="490" y="230" />
            </Array>
          </mxGeometry>
        </mxCell>
        <mxCell id="Zvblqhm12Ru0k46V139t-29" value="sendInitializationRequest" style="edgeLabel;html=1;align=center;verticalAlign=middle;resizable=0;points=[];" vertex="1" connectable="0" parent="Zvblqhm12Ru0k46V139t-28">
          <mxGeometry x="-0.2899" y="-1" relative="1" as="geometry">
            <mxPoint x="102" y="-11" as="offset" />
          </mxGeometry>
        </mxCell>
        <mxCell id="Zvblqhm12Ru0k46V139t-30" style="edgeStyle=orthogonalEdgeStyle;rounded=0;orthogonalLoop=1;jettySize=auto;html=1;curved=0;strokeWidth=4;strokeColor=#66FF66;" edge="1" parent="1" source="Zvblqhm12Ru0k46V139t-27" target="Zvblqhm12Ru0k46V139t-8">
          <mxGeometry relative="1" as="geometry">
            <Array as="points">
              <mxPoint x="480" y="270" />
              <mxPoint x="480" y="270" />
            </Array>
          </mxGeometry>
        </mxCell>
        <mxCell id="Zvblqhm12Ru0k46V139t-31" value="scadaClient.initializext&amp;nbsp; &amp;nbsp; (HTTP)" style="edgeLabel;html=1;align=center;verticalAlign=middle;resizable=0;points=[];" vertex="1" connectable="0" parent="Zvblqhm12Ru0k46V139t-30">
          <mxGeometry x="-0.0412" relative="1" as="geometry">
            <mxPoint x="35" y="-10" as="offset" />
          </mxGeometry>
        </mxCell>
        <mxCell id="Zvblqhm12Ru0k46V139t-32" value="cache.scada.catenary-status-queue.name" style="shape=cylinder3;whiteSpace=wrap;html=1;boundedLbl=1;backgroundOutline=1;size=15;" vertex="1" parent="1">
          <mxGeometry x="750" y="460" width="130" height="80" as="geometry" />
        </mxCell>
        <mxCell id="Zvblqhm12Ru0k46V139t-33" value="" style="endArrow=none;html=1;rounded=0;" edge="1" parent="1" source="Zvblqhm12Ru0k46V139t-32" target="Zvblqhm12Ru0k46V139t-12">
          <mxGeometry width="50" height="50" relative="1" as="geometry">
            <mxPoint x="646" y="260" as="sourcePoint" />
            <mxPoint x="696" y="210" as="targetPoint" />
          </mxGeometry>
        </mxCell>
        <mxCell id="Zvblqhm12Ru0k46V139t-34" value="" style="endArrow=none;html=1;rounded=0;entryX=1;entryY=0;entryDx=0;entryDy=27.5;entryPerimeter=0;" edge="1" parent="1" source="Zvblqhm12Ru0k46V139t-24" target="Zvblqhm12Ru0k46V139t-32">
          <mxGeometry width="50" height="50" relative="1" as="geometry">
            <mxPoint x="796" y="290" as="sourcePoint" />
            <mxPoint x="1016" y="447.5" as="targetPoint" />
          </mxGeometry>
        </mxCell>
        <mxCell id="Zvblqhm12Ru0k46V139t-35" value="cache.esb.hearbeat.name" style="shape=cylinder3;whiteSpace=wrap;html=1;boundedLbl=1;backgroundOutline=1;size=15;" vertex="1" parent="1">
          <mxGeometry x="388" y="450" width="156" height="60" as="geometry" />
        </mxCell>
        <mxCell id="Zvblqhm12Ru0k46V139t-36" value="" style="endArrow=none;html=1;rounded=0;exitX=0;exitY=1;exitDx=0;exitDy=-5;exitPerimeter=0;" edge="1" parent="1" source="Zvblqhm12Ru0k46V139t-10" target="Zvblqhm12Ru0k46V139t-35">
          <mxGeometry width="50" height="50" relative="1" as="geometry">
            <mxPoint x="576" y="270" as="sourcePoint" />
            <mxPoint x="626" y="220" as="targetPoint" />
          </mxGeometry>
        </mxCell>
        <mxCell id="Zvblqhm12Ru0k46V139t-37" value="topic.notifier.tms.origin.isolation" style="shape=tape;whiteSpace=wrap;html=1;" vertex="1" parent="1">
          <mxGeometry x="1146" y="510" width="190" height="60" as="geometry" />
        </mxCell>
        <mxCell id="Zvblqhm12Ru0k46V139t-38" value="topic.notifier.scada.origin.catenary" style="shape=tape;whiteSpace=wrap;html=1;" vertex="1" parent="1">
          <mxGeometry x="192" y="520" width="196" height="60" as="geometry" />
        </mxCell>
        <mxCell id="Zvblqhm12Ru0k46V139t-39" value="" style="endArrow=none;html=1;rounded=0;entryX=0;entryY=1;entryDx=0;entryDy=-5;entryPerimeter=0;" edge="1" parent="1" source="Zvblqhm12Ru0k46V139t-38" target="Zvblqhm12Ru0k46V139t-10">
          <mxGeometry width="50" height="50" relative="1" as="geometry">
            <mxPoint x="480" y="360" as="sourcePoint" />
            <mxPoint x="530" y="310" as="targetPoint" />
          </mxGeometry>
        </mxCell>
        <mxCell id="Zvblqhm12Ru0k46V139t-40" value="" style="endArrow=none;html=1;rounded=0;entryX=0.211;entryY=0.4;entryDx=0;entryDy=0;entryPerimeter=0;" edge="1" parent="1" source="Zvblqhm12Ru0k46V139t-22" target="Zvblqhm12Ru0k46V139t-37">
          <mxGeometry width="50" height="50" relative="1" as="geometry">
            <mxPoint x="852" y="390" as="sourcePoint" />
            <mxPoint x="1210" y="479.98" as="targetPoint" />
          </mxGeometry>
        </mxCell>
        <mxCell id="Zvblqhm12Ru0k46V139t-41" value="int scada&lt;br&gt;AbstractSynopticManagerNotifierService&lt;br&gt;" style="shape=umlLifeline;perimeter=lifelinePerimeter;whiteSpace=wrap;html=1;container=1;dropTarget=0;collapsible=0;recursiveResize=0;outlineConnect=0;portConstraint=eastwest;newEdgeStyle={&quot;curved&quot;:0,&quot;rounded&quot;:0};fillColor=#fff2cc;strokeColor=#d6b656;" vertex="1" parent="1">
          <mxGeometry x="880" y="110" width="100" height="300" as="geometry" />
        </mxCell>
        <mxCell id="Zvblqhm12Ru0k46V139t-42" value="" style="html=1;points=[[0,0,0,0,5],[0,1,0,0,-5],[1,0,0,0,5],[1,1,0,0,-5]];perimeter=orthogonalPerimeter;outlineConnect=0;targetShapes=umlLifeline;portConstraint=eastwest;newEdgeStyle={&quot;curved&quot;:0,&quot;rounded&quot;:0};" vertex="1" parent="Zvblqhm12Ru0k46V139t-41">
          <mxGeometry x="45" y="230" width="10" height="80" as="geometry" />
        </mxCell>
        <mxCell id="Zvblqhm12Ru0k46V139t-43" style="edgeStyle=orthogonalEdgeStyle;rounded=0;orthogonalLoop=1;jettySize=auto;html=1;curved=0;" edge="1" parent="1" source="Zvblqhm12Ru0k46V139t-12" target="Zvblqhm12Ru0k46V139t-42">
          <mxGeometry relative="1" as="geometry">
            <Array as="points">
              <mxPoint x="900" y="400" />
              <mxPoint x="900" y="400" />
            </Array>
          </mxGeometry>
        </mxCell>
        <mxCell id="Zvblqhm12Ru0k46V139t-44" value="send" style="edgeLabel;html=1;align=center;verticalAlign=middle;resizable=0;points=[];" vertex="1" connectable="0" parent="Zvblqhm12Ru0k46V139t-43">
          <mxGeometry x="0.3008" y="2" relative="1" as="geometry">
            <mxPoint as="offset" />
          </mxGeometry>
        </mxCell>
        <mxCell id="Zvblqhm12Ru0k46V139t-45" value="topic.notifier.fieldStatus.payload" style="shape=tape;whiteSpace=wrap;html=1;" vertex="1" parent="1">
          <mxGeometry x="940" y="520" width="186" height="60" as="geometry" />
        </mxCell>
        <mxCell id="Zvblqhm12Ru0k46V139t-46" value="" style="endArrow=none;html=1;rounded=0;entryX=0.618;entryY=0.05;entryDx=0;entryDy=0;entryPerimeter=0;exitX=1.6;exitY=0.85;exitDx=0;exitDy=0;exitPerimeter=0;" edge="1" parent="1" source="Zvblqhm12Ru0k46V139t-42" target="Zvblqhm12Ru0k46V139t-45">
          <mxGeometry width="50" height="50" relative="1" as="geometry">
            <mxPoint x="646" y="360" as="sourcePoint" />
            <mxPoint x="696" y="310" as="targetPoint" />
          </mxGeometry>
        </mxCell>
        <mxCell id="Zvblqhm12Ru0k46V139t-47" value="" style="endArrow=none;html=1;rounded=0;exitX=0.75;exitY=0;exitDx=0;exitDy=0;exitPerimeter=0;" edge="1" parent="1" source="Zvblqhm12Ru0k46V139t-38" target="Zvblqhm12Ru0k46V139t-20">
          <mxGeometry width="50" height="50" relative="1" as="geometry">
            <mxPoint x="299" y="510" as="sourcePoint" />
            <mxPoint x="471" y="265" as="targetPoint" />
          </mxGeometry>
        </mxCell>
        <mxCell id="Zvblqhm12Ru0k46V139t-48" style="edgeStyle=orthogonalEdgeStyle;rounded=0;orthogonalLoop=1;jettySize=auto;html=1;curved=0;" edge="1" parent="1" source="Zvblqhm12Ru0k46V139t-50" target="Zvblqhm12Ru0k46V139t-52">
          <mxGeometry relative="1" as="geometry">
            <Array as="points">
              <mxPoint x="150" y="790" />
              <mxPoint x="150" y="790" />
            </Array>
          </mxGeometry>
        </mxCell>
        <mxCell id="Zvblqhm12Ru0k46V139t-49" value="herbeat" style="edgeLabel;html=1;align=center;verticalAlign=middle;resizable=0;points=[];" vertex="1" connectable="0" parent="Zvblqhm12Ru0k46V139t-48">
          <mxGeometry x="-0.1121" y="2" relative="1" as="geometry">
            <mxPoint as="offset" />
          </mxGeometry>
        </mxCell>
        <mxCell id="Zvblqhm12Ru0k46V139t-50" value="scada 1" style="shape=umlLifeline;perimeter=lifelinePerimeter;whiteSpace=wrap;html=1;container=1;dropTarget=0;collapsible=0;recursiveResize=0;outlineConnect=0;portConstraint=eastwest;newEdgeStyle={&quot;curved&quot;:0,&quot;rounded&quot;:0};fillColor=#e1d5e7;strokeColor=#9673a6;" vertex="1" parent="1">
          <mxGeometry x="34" y="680" width="100" height="300" as="geometry" />
        </mxCell>
        <mxCell id="Zvblqhm12Ru0k46V139t-51" value="SCADA TMS" style="shape=umlLifeline;perimeter=lifelinePerimeter;whiteSpace=wrap;html=1;container=1;dropTarget=0;collapsible=0;recursiveResize=0;outlineConnect=0;portConstraint=eastwest;newEdgeStyle={&quot;curved&quot;:0,&quot;rounded&quot;:0};fillColor=#dae8fc;strokeColor=#6c8ebf;" vertex="1" parent="1">
          <mxGeometry x="350" y="680" width="100" height="310" as="geometry" />
        </mxCell>
        <mxCell id="Zvblqhm12Ru0k46V139t-52" value="" style="html=1;points=[[0,0,0,0,5],[0,1,0,0,-5],[1,0,0,0,5],[1,1,0,0,-5]];perimeter=orthogonalPerimeter;outlineConnect=0;targetShapes=umlLifeline;portConstraint=eastwest;newEdgeStyle={&quot;curved&quot;:0,&quot;rounded&quot;:0};" vertex="1" parent="Zvblqhm12Ru0k46V139t-51">
          <mxGeometry x="45" y="90" width="10" height="80" as="geometry" />
        </mxCell>
        <mxCell id="Zvblqhm12Ru0k46V139t-53" value="" style="html=1;points=[[0,0,0,0,5],[0,1,0,0,-5],[1,0,0,0,5],[1,1,0,0,-5]];perimeter=orthogonalPerimeter;outlineConnect=0;targetShapes=umlLifeline;portConstraint=eastwest;newEdgeStyle={&quot;curved&quot;:0,&quot;rounded&quot;:0};" vertex="1" parent="Zvblqhm12Ru0k46V139t-51">
          <mxGeometry x="45" y="200" width="10" height="80" as="geometry" />
        </mxCell>
        <mxCell id="Zvblqhm12Ru0k46V139t-54" style="edgeStyle=orthogonalEdgeStyle;rounded=0;orthogonalLoop=1;jettySize=auto;html=1;curved=0;" edge="1" parent="1" source="Zvblqhm12Ru0k46V139t-52" target="Zvblqhm12Ru0k46V139t-50">
          <mxGeometry relative="1" as="geometry">
            <Array as="points">
              <mxPoint x="300" y="810" />
              <mxPoint x="300" y="810" />
            </Array>
          </mxGeometry>
        </mxCell>
        <mxCell id="Zvblqhm12Ru0k46V139t-55" value="HTTP&amp;nbsp; init" style="edgeLabel;html=1;align=center;verticalAlign=middle;resizable=0;points=[];" vertex="1" connectable="0" parent="Zvblqhm12Ru0k46V139t-54">
          <mxGeometry x="0.2263" y="3" relative="1" as="geometry">
            <mxPoint x="86" as="offset" />
          </mxGeometry>
        </mxCell>
        <mxCell id="Zvblqhm12Ru0k46V139t-56" value="scada 2" style="shape=umlLifeline;perimeter=lifelinePerimeter;whiteSpace=wrap;html=1;container=1;dropTarget=0;collapsible=0;recursiveResize=0;outlineConnect=0;portConstraint=eastwest;newEdgeStyle={&quot;curved&quot;:0,&quot;rounded&quot;:0};fillColor=#e1d5e7;strokeColor=#9673a6;" vertex="1" parent="1">
          <mxGeometry x="150" y="680" width="100" height="300" as="geometry" />
        </mxCell>
        <mxCell id="Zvblqhm12Ru0k46V139t-57" style="edgeStyle=orthogonalEdgeStyle;rounded=0;orthogonalLoop=1;jettySize=auto;html=1;curved=0;" edge="1" parent="1" source="Zvblqhm12Ru0k46V139t-56" target="Zvblqhm12Ru0k46V139t-53">
          <mxGeometry relative="1" as="geometry">
            <Array as="points">
              <mxPoint x="350" y="920" />
              <mxPoint x="350" y="920" />
            </Array>
          </mxGeometry>
        </mxCell>
        <mxCell id="Zvblqhm12Ru0k46V139t-58" value="hearbeat" style="edgeLabel;html=1;align=center;verticalAlign=middle;resizable=0;points=[];" vertex="1" connectable="0" parent="Zvblqhm12Ru0k46V139t-57">
          <mxGeometry x="-0.2379" relative="1" as="geometry">
            <mxPoint x="1" as="offset" />
          </mxGeometry>
        </mxCell>
        <mxCell id="Zvblqhm12Ru0k46V139t-59" style="edgeStyle=orthogonalEdgeStyle;rounded=0;orthogonalLoop=1;jettySize=auto;html=1;curved=0;" edge="1" parent="1" source="Zvblqhm12Ru0k46V139t-53" target="Zvblqhm12Ru0k46V139t-56">
          <mxGeometry relative="1" as="geometry">
            <Array as="points">
              <mxPoint x="260" y="940" />
              <mxPoint x="260" y="940" />
            </Array>
          </mxGeometry>
        </mxCell>
        <mxCell id="Zvblqhm12Ru0k46V139t-60" value="HTTP&amp;nbsp; init" style="edgeLabel;html=1;align=center;verticalAlign=middle;resizable=0;points=[];" vertex="1" connectable="0" parent="Zvblqhm12Ru0k46V139t-59">
          <mxGeometry x="-0.435" y="2" relative="1" as="geometry">
            <mxPoint as="offset" />
          </mxGeometry>
        </mxCell>
        <mxCell id="Zvblqhm12Ru0k46V139t-61" style="edgeStyle=orthogonalEdgeStyle;rounded=0;orthogonalLoop=1;jettySize=auto;html=1;curved=0;" edge="1" parent="1" source="Zvblqhm12Ru0k46V139t-24" target="Zvblqhm12Ru0k46V139t-16">
          <mxGeometry relative="1" as="geometry">
            <Array as="points">
              <mxPoint x="1170" y="370" />
              <mxPoint x="1170" y="370" />
            </Array>
          </mxGeometry>
        </mxCell>
        <mxCell id="Zvblqhm12Ru0k46V139t-62" value="isolationsManagerClient.getIsolationsByQuery(query)" style="edgeLabel;html=1;align=center;verticalAlign=middle;resizable=0;points=[];" vertex="1" connectable="0" parent="Zvblqhm12Ru0k46V139t-61">
          <mxGeometry x="0.0037" y="2" relative="1" as="geometry">
            <mxPoint as="offset" />
          </mxGeometry>
        </mxCell>
        <mxCell id="Zvblqhm12Ru0k46V139t-63" value="PRESENT UP&amp;nbsp; true&lt;br&gt;ABSENT DOWN false&lt;br&gt;UNKOWN" style="rounded=1;whiteSpace=wrap;html=1;" vertex="1" parent="1">
          <mxGeometry x="700" y="650" width="240" height="80" as="geometry" />
        </mxCell>
        <mxCell id="Zvblqhm12Ru0k46V139t-64" value="ABSENT" style="rounded=0;whiteSpace=wrap;html=1;" vertex="1" parent="1">
          <mxGeometry x="1026" y="790" width="120" height="60" as="geometry" />
        </mxCell>
        <mxCell id="Zvblqhm12Ru0k46V139t-65" value="PRESENT" style="rounded=0;whiteSpace=wrap;html=1;" vertex="1" parent="1">
          <mxGeometry x="1146" y="850" width="120" height="60" as="geometry" />
        </mxCell>
        <mxCell id="Zvblqhm12Ru0k46V139t-66" value="2" style="rounded=0;whiteSpace=wrap;html=1;" vertex="1" parent="1">
          <mxGeometry x="1146" y="790" width="120" height="60" as="geometry" />
        </mxCell>
        <mxCell id="Zvblqhm12Ru0k46V139t-67" style="edgeStyle=orthogonalEdgeStyle;rounded=0;orthogonalLoop=1;jettySize=auto;html=1;entryX=0.5;entryY=1;entryDx=0;entryDy=0;" edge="1" parent="1" source="Zvblqhm12Ru0k46V139t-68" target="Zvblqhm12Ru0k46V139t-65">
          <mxGeometry relative="1" as="geometry" />
        </mxCell>
        <mxCell id="Zvblqhm12Ru0k46V139t-68" value="3&lt;br&gt;" style="ellipse;whiteSpace=wrap;html=1;" vertex="1" parent="1">
          <mxGeometry x="1146" y="1010" width="120" height="80" as="geometry" />
        </mxCell>
      </root>
    </mxGraphModel>
  </diagram>
</mxfile>
